<?xml version="1.0" encoding="UTF-8"?>
<!DOCTYPE svg PUBLIC "-//W3C//DTD SVG 1.1//EN" "http://www.w3.org/Graphics/SVG/1.1/DTD/svg11.dtd">
<!-- Creator: CorelDRAW 2018 (64 Bit) -->
<svg xmlns="http://www.w3.org/2000/svg" xml:space="preserve" width="23.9194mm" height="24.1301mm" version="1.1" style="shape-rendering:geometricPrecision; text-rendering:geometricPrecision; image-rendering:optimizeQuality; fill-rule:evenodd; clip-rule:evenodd"
viewBox="0 0 27.69 27.93"
 xmlns:xlink="http://www.w3.org/1999/xlink">
 <defs>
  <style type="text/css">
   <![CDATA[
    .fil0 {fill:#131313}
    .fil1 {fill:white}
   ]]>
  </style>
 </defs>
 <g id="Capa_x0020_1">
  <metadata id="CorelCorpID_0Corel-Layer"/>
  <g id="_2153140345808">
   <path class="fil0" d="M5.69 11.53c-0.01,2.7 -0.22,5.47 -0.33,8.16 -0.04,0.94 -0.36,7.76 -0.28,8.11 2.85,0.15 5.72,0.14 8.59,0.13 1.44,-0.01 2.87,-0.07 4.31,-0.05 0.89,0.01 3.59,0.04 4.34,-0.01 0.1,-0.45 -0.15,-12.4 -0.18,-14.15 -0.01,-0.63 -0.09,-1.5 -0.04,-2.1 0.55,0.3 0.72,1.02 1.55,0.26 0.17,-0.16 0.28,-0.24 0.47,-0.38l2.87 -2.1c1.16,-1.08 0.86,-0.75 -0.62,-2.88 -0.47,-0.68 -0.9,-1.3 -1.36,-1.96 -0.47,-0.68 -0.87,-1.35 -1.34,-1.99 -0.63,-0.86 -0.85,-1.01 -1.9,-1.43 -0.54,-0.22 -0.81,-0.22 -1.36,-0.33 -0.5,-0.1 -0.64,-0.5 -1.03,-0.66 -1.54,1.19 -2.27,1.47 -4.56,1.62l0.01 0.59 -1.49 0.06 -0.08 -0.67c-1.91,-0.08 -2.66,-0.29 -4.18,-1.02 -0.23,-0.11 -0.35,-0.17 -0.54,-0.31 -0.18,-0.14 -0.33,-0.31 -0.5,-0.42l-1.44 0.99c-0.28,0.16 -1.14,0.29 -1.72,0.76 -0.51,0.42 -0.22,-0.02 -0.86,0.84 -0.48,0.64 -0.99,1.26 -1.48,1.85l-2.22 3.53c-0.1,0.21 -0.12,0.4 -0.24,0.61 -0.26,0.48 0.18,0.54 0.59,0.8 0.38,0.24 0.66,0.42 1.03,0.67 1.33,0.91 0.85,0.66 1.86,1.47 1.04,0.82 1.28,0.82 1.89,0.24l0.25 -0.22z"/>
   <path class="fil1" d="M10.33 17.88l-0.7 -0.33c-0.12,-1.44 -0.1,-1.48 -0.7,-1.37 -0.13,-0.24 -0.32,-0.7 -0.58,-0.53 -0.43,0.25 0.08,1.02 -0.04,1.41 -0.3,0.97 0.29,0.74 0.6,1 0.23,0.22 0.33,0.77 0.46,1.06 0.15,0.36 0.32,0.68 0.49,1.02 0.93,1.81 2.45,4.14 4.74,4.4 0.5,0.06 0.91,-0.14 1.41,-0.01 0.34,0.08 1.44,1.51 2.27,-1.35 0.14,-0.47 0.11,-0.85 -0.49,-0.82 -0.56,0.03 -0.5,0.44 -1.14,0.02 -0.39,-0.26 -1.17,-1.24 -1.25,-1.88 0.53,-0.29 1.81,-1.67 2.07,-2.46 0.13,-0.4 0.32,-1.61 0.16,-1.96 -0.13,-0.28 -0.33,-0.41 -0.4,-0.75 -0.07,-0.35 -0.07,-0.67 -0.42,-0.75 -0.18,0.17 -0.15,0.27 -0.18,0.58 -0.27,-0.13 -0.23,-0.28 -0.62,-0.27 -0.06,0.62 0.19,0.76 0.23,1.21 -0.15,0.08 -0.24,0.16 -0.4,0.16 -0.43,-0.01 -0.17,-0.29 -0.33,-1.02 -0.09,-0.4 -0.17,-0.44 -0.39,-0.69 0.11,-0.22 0.47,-0.65 0.19,-1.04 -0.25,-0.35 -0.8,-0.04 -1.3,-0.08 -1.02,-0.09 -3.12,-0.93 -3.83,1.77 -0.27,1.03 -0.07,1.75 0.14,2.68z"/>
   <path class="fil1" d="M16.37 11.75c0.22,0.41 0.02,0.52 0.34,0.65l0.09 -0.65c0.71,-0.17 1.03,-0.27 1.37,-0.74 0.68,-0.92 0.71,-3.77 -1.96,-3.67 -1.3,0.05 -2.02,0.91 -1.95,2.27 0.07,1.34 0.75,2.02 2.09,2.14z"/>
   <path class="fil1" d="M11.63 11.87c0.06,0.28 0.09,0.56 0.28,0.67 0.26,-0.34 -0.01,-0.63 0.31,-0.74 0.37,-0.13 0.46,-0.07 0.78,-0.32 0.4,-0.31 0.67,-0.74 0.73,-1.45 0.13,-1.44 -0.41,-2.51 -1.7,-2.65 -2.47,-0.28 -2.73,2.53 -1.82,3.74 0.49,0.65 0.62,0.47 1.42,0.75z"/>
   <path class="fil1" d="M6.95 12.06l0.15 -0.26 1.44 -0.02c0.07,0.24 0.09,0.32 0.36,0.38 0.12,-0.35 0.07,-0.38 0.3,-0.67 0.14,-0.18 0.25,-0.39 0.29,-0.69 0.09,-0.76 -0.17,-1.06 -0.59,-1.39 0.2,-0.26 0.4,-0.36 0.38,-0.84 -0.02,-0.41 -0.24,-0.69 -0.47,-0.84 -0.32,-0.21 -1.96,-0.28 -2.39,-0.16 -0.05,0.33 0.14,3.92 0.24,4.11 0.12,0.24 0.03,-0.09 0.29,0.37z"/>
   <path class="fil1" d="M19.32 7.09c-0.09,0.37 0.11,2.99 0.23,3.36 0.93,0.14 0.77,-0.27 0.81,-0.83 0.07,-1.01 0.15,-1.54 0.11,-2.62l-1.15 0.09z"/>
   <path class="fil1" d="M12.31 27.27l0.02 -1.11 0.47 0.5c0.2,-0.13 0.15,-0.16 0.34,-0.37 0.1,-0.11 0.03,-0.06 0.17,-0.16 -0,0.15 -0.08,0.91 0.09,0.91 0.17,-0 -0.09,-0.09 0.17,-0.08 0.06,0.21 -0.03,0.25 0.1,0.37 0.11,-0.27 0.1,-1.43 0.06,-1.8 -0.73,-0.01 -0.53,0.2 -0.91,0.53 -0.4,-0.37 -0.3,-0.52 -0.67,-0.52 -0.03,0.78 0.14,0.66 -0.05,0.76 -0.1,-0.23 0.22,-0.6 -0.12,-0.77 -0.01,0.01 -0.02,0.02 -0.02,0.04 -0,0.02 -0.02,0.03 -0.02,0.04 -0.02,0.06 -0.02,0.08 -0.03,0.15 -0.04,0.33 -0.11,1.12 0.19,1.3 0.36,0.21 -0.1,0.05 0.22,0.19z"/>
   <path class="fil0" d="M14.59 18.02c-0.68,0.29 -1.24,1.1 -2.46,-0.18l-0.18 -0.16c0.11,0.67 0.63,1.57 1.15,1.73 0.69,0.21 1.33,-0.85 1.49,-1.39z"/>
   <path class="fil0" d="M16.5 10.72c0.66,-0.01 0.73,-0.61 0.7,-1.23 -0.03,-0.62 -0.22,-1.1 -0.83,-1.12 -0.01,0.31 0.08,0.76 0.1,1.12 0.02,0.37 -0.01,0.9 0.04,1.23z"/>
   <path class="fil1" d="M19.86 10.8c-0.87,0.28 -0.48,1.66 0.27,1.45 0.68,-0.19 0.59,-1.73 -0.27,-1.45z"/>
   <path class="fil1" d="M13.77 26.93c0.11,0.17 0.04,0.03 0.11,0.21l0.14 -0.14 0.08 0.16c0.01,0.01 0.02,0.03 0.02,0.04l0.05 0.08c-0.03,-0.39 0.09,-0.37 0.2,-0.66l0.73 0.01 0.38 0.7c0.08,-0.17 -0.02,-0.1 0.1,-0.35 0.18,-0.37 -0.04,0.17 0.07,-0.12 -0.11,-0.16 -0.3,-0.56 -0.42,-0.78 -0.22,-0.4 -0.14,-0.55 -0.68,-0.55 -0.23,0.44 -0.52,0.92 -0.79,1.39z"/>
   <path class="fil1" d="M9.89 26.93c0.11,0.17 0.04,0.03 0.11,0.21l0.14 -0.14 0.13 0.25c0.01,0.01 0.01,0.03 0.03,0.04 -0.03,-0.39 0.09,-0.37 0.2,-0.66l0.73 0.01 0.38 0.7c0.08,-0.17 -0.02,-0.1 0.1,-0.35 0.19,-0.4 -0.04,0.19 0.07,-0.12 -0.11,-0.16 -0.3,-0.56 -0.42,-0.78 -0.22,-0.4 -0.14,-0.55 -0.68,-0.55 -0.23,0.44 -0.52,0.92 -0.79,1.38z"/>
   <path class="fil1" d="M9.42 26.62c-0.4,0.29 -0.46,-0.2 -0.93,0.04 0.05,0.23 0.09,0.1 0.22,0.31 0.12,0.2 0.02,0.18 0.1,0.36l0.12 -0.32c0.15,0.07 0.18,0.03 0.28,0.07 0.25,0.11 -0,0 0.2,0.23 0.18,-0.4 0.48,-0.38 0.48,-0.76 0,-0.36 -0.38,-0.37 -0.63,-0.44 -0.32,-0.08 -0.16,0.02 -0.29,-0.16 0.33,-0.42 0.66,0.37 0.87,-0.26 -1.29,-0.51 -1.87,0.41 -0.83,0.67 0.08,0.02 0.17,0.03 0.24,0.06 0.29,0.13 0.12,-0.02 0.17,0.19z"/>
   <path class="fil0" d="M11.83 10.77c0.62,-0.07 0.67,-0.61 0.65,-1.23 -0.03,-0.65 -0.17,-1.08 -0.79,-1.16 0.09,0.84 0.2,1.51 0.14,2.39z"/>
   <path class="fil1" d="M17.88 25.8c0.09,0.05 0.06,0.04 0.08,0.08 0.11,0.17 -0.01,0.31 0.13,0.63 0.18,0.43 0.45,0.23 0.43,0.67 0.01,-0.01 0.02,-0.05 0.02,-0.04l0.11 -0.21c0.33,0.18 0.06,0.28 0.36,0.01 0.12,0.13 0.03,0.1 0.12,0.28 0.01,-0.01 0.01,-0.05 0.02,-0.04l0.1 -0.18c0.14,-0.13 0.06,-0.03 0.09,-0.05l0.27 -0.24c0.01,-0.01 0.02,-0.03 0.03,-0.04 -0.5,-0.15 -1.03,0.09 -1.16,-0.28 -0,-0.23 0.05,-0.36 0.31,-0.47 0.33,-0.14 0.35,-0.01 0.65,0.04 0.13,-0.15 0.09,-0.06 0.18,-0.24 -1.19,-0.46 -1.21,0.06 -1.73,0.1z"/>
   <path class="fil1" d="M15.75 26.81c0.1,0.34 0.24,-0.04 0.21,0.54l0.04 -0.09c0.24,-0.66 0.04,-0.06 0.58,-0.3 0.07,0.14 -0.09,-0.15 0.04,0.1l0.08 0.14c0,-0.72 0.31,0.17 0.39,-0.58l-0.87 -0 -0.02 -1.07 -0.43 0 -0.02 1.25z"/>
   <path class="fil0" d="M16.18 10.65c-0.06,-0.8 -0.04,-1.46 -0.01,-2.25 -0.47,0.14 -0.54,0.5 -0.53,1.09 0.01,0.59 0.1,0.97 0.54,1.16z"/>
   <path class="fil0" d="M13.78 15.82c-0.39,0.43 -0.24,1.56 0.3,1.39 0.24,-0.08 0.29,-0.52 0.25,-0.83 -0.06,-0.39 -0.16,-0.57 -0.54,-0.56z"/>
   <path class="fil0" d="M12.45 15.66c-0.62,0.23 -0.37,1.43 0.06,1.44 0.44,0.01 0.53,-1.17 -0.06,-1.44z"/>
   <path class="fil0" d="M11.55 10.71l-0.1 -2.26c-0.39,0.13 -0.44,0.64 -0.41,1.16 0.03,0.53 0.11,0.93 0.51,1.1z"/>
   <path class="fil1" d="M17.49 27.15l0.14 -0.2c0.35,-0.33 0.15,-1.14 -0,-1.47 -0.44,-0.11 -0.29,0.05 -0.36,0.38 -0.09,0.38 -0.14,0.61 0.11,1.07l0.12 0.22z"/>
   <path class="fil0" d="M7.6 10.73c0.4,0.02 0.86,0.08 0.84,-0.34 -0.02,-0.4 -0.48,-0.35 -0.83,-0.34l-0.01 0.68z"/>
   <path class="fil0" d="M7.5 8.97l0.57 0.01c0.22,-0.08 0.06,-0 0.14,-0.12 0.1,-0.3 -0.43,-0.27 -0.71,-0.26l0 0.37z"/>
  </g>
 </g>
</svg>
