<?xml version="1.0" encoding="UTF-8"?>
<!DOCTYPE svg PUBLIC "-//W3C//DTD SVG 1.1//EN" "http://www.w3.org/Graphics/SVG/1.1/DTD/svg11.dtd">
<!-- Creator: CorelDRAW 2018 (64 Bit) -->
<svg xmlns="http://www.w3.org/2000/svg" xml:space="preserve" width="54.3228mm" height="52.4904mm" version="1.1" style="shape-rendering:geometricPrecision; text-rendering:geometricPrecision; image-rendering:optimizeQuality; fill-rule:evenodd; clip-rule:evenodd"
viewBox="0 0 2677.53 2587.21"
 xmlns:xlink="http://www.w3.org/1999/xlink">
 <defs>
  <style type="text/css">
   <![CDATA[
    .fil0 {fill:black}
    .fil1 {fill:#ED3237}
   ]]>
  </style>
 </defs>
 <g id="Capa_x0020_1">
  <metadata id="CorelCorpID_0Corel-Layer"/>
  <g id="_1975734638512">
   <path class="fil0" d="M1266.83 1903.25c24.3,49.12 56.89,88.47 100.15,107.93 3.91,1.45 6.8,3.4 10.71,4.85 31.11,-21.38 63.7,-42.79 88,-66.62 38.41,-37.44 60.76,-88 64.16,-140.99 0.98,-19.46 -1.45,-64.67 -15.56,-82.64 -52.99,-19.93 -100.15,-5.35 -135.63,40.36 -32.08,41.34 -40.36,75.85 -85.07,116.21 -8.75,7.78 -17.98,14.57 -26.73,20.44l0 0 -0.03 0.47z"/>
   <path class="fil1" d="M1537.62 314.9c-137.11,1.95 -211.48,24.81 -307.25,94.32 -145.87,105 -274.2,293.15 -345.67,460.9 -24.81,57.87 -88.47,277.13 -106.48,303.86 -17.98,26.73 -180.37,156.54 -214.41,182.79 -671.4,521.19 -575.16,-206.12 -534.32,-250.39 25.28,-26.73 135.63,-60.76 246.96,-150.72 397.68,-318.43 642.25,-761.35 1165.86,-857.63 125.9,-23.33 238.71,-18.95 359.77,0.47 61.74,9.73 110.86,21.88 167.24,38.88 39.39,11.17 88,26.73 119.1,51.03 11.68,9.22 10.71,9.73 18.48,18.48l-251.34 55.42c-49.11,-30.64 -86.04,-83.62 -181.82,-69.05 -93.82,14.11 -91.4,60.3 -136.14,121.53l-0.47 -0.47 0.47 0.57z"/>
   <path class="fil0" d="M1588.69 541.97c-9.22,-10.2 6.8,-25.28 -45.21,-12.62 -35.01,8.75 -109.88,73.42 -135.63,103.08 -141.49,161.42 -265.95,379.7 -324.76,595.56 -83.62,309.21 -55.41,807.54 219.76,928.6 -71.47,65.64 -236.76,18.95 -304.83,-36.46 -229.49,-188.62 -192.53,-715.17 -129.34,-970.41 64.16,-259.62 231.41,-595.56 464.77,-717.59 141.49,-73.89 184.75,-41.34 317.49,-8.28 -11.17,-62.25 -73.42,-109.38 13.6,-149.27 61.74,-28.69 123.99,13.13 145.36,70.02 39.86,111.83 -4.38,445.35 -123.48,564.92 -40.36,40.83 -118.13,71.94 -150.24,3.4 -45.72,-98.7 123.01,-299 53.49,-371.45l-0.98 0.5z"/>
   <path class="fil1" d="M1990.27 427.21c284.9,-64.67 588.75,237.74 588.29,432.69 -231.92,17.98 -309.68,29.19 -482.28,131.26 -193.5,113.75 -286.35,241.14 -341.8,275.68l-43.76 56.89c-121.53,-40.36 -261.57,-127.38 -469.14,-4.85 -45.21,26.73 -81.67,63.69 -115.71,80.22 10.71,-255.24 255.72,-680.16 386.5,-760.38 -13.6,98.2 -88.98,194.95 -48.61,299.98 35.48,92.85 153.14,117.15 243.56,50.09 129.34,-95.31 182.8,-335.46 189.6,-550.85l92.85 -10.71 0.47 0 0.03 -0.03z"/>
   <path class="fil0" d="M654.74 2398.66c34.51,-17.51 82.64,-10.2 193.5,-64.16 70.49,-34.03 111.33,-71.47 166.27,-101.13 95.3,0 128.83,35.01 263.52,23.83 -40.37,226.06 290.72,54.43 329.13,29.66 136.14,-88.98 266.93,-301.43 291.7,-478.88 20.9,-152.66 -15.08,-213.9 -51.03,-329.64 186.19,-192.06 478.87,-455.07 777.41,-415.18 46.19,67.57 83.15,303.86 14.11,380.68 -60.76,67.09 -200.31,119.61 -283.46,193.5 -347.62,308.74 -844.5,1061.34 -1402.12,935.9 -122.5,-27.71 -246.96,-104.53 -299.48,-175.52l0 0.47 0.44 0.47z"/>
   <path class="fil1" d="M1125.84 1783.64c-77.29,-88.97 -12.62,-315.53 172.09,-410.33 359.77,-184.75 700.59,238.71 445.35,651.98 -86.05,138.56 -173.07,236.76 -389.43,270.79 32.59,-125.9 148.29,-157.51 224.61,-232.38 166.27,-163.34 130.79,-429.79 4.85,-482.28 -118.13,-50.09 -246.96,-20.91 -330.59,88 -47.63,62.25 -48.14,112.31 -125.9,114.26l-0.47 0 -0.51 -0.03z"/>
   <path class="fil0" d="M1656.76 2561.06c32.08,-38.88 101.13,-62.72 140.99,-84.1 319.4,-176.47 533.34,-681.64 788.58,-752.13 -32.59,227.54 -217.8,437.57 -333.04,548.4 -163.85,158.02 -344.69,288.3 -596.53,288.3l0 0 0 -0.47z"/>
   <path class="fil1" d="M96.59 1720.93c203.23,-11.68 357.82,-45.21 515.33,-157.05 52.52,-36.45 81.67,-77.29 131.26,-98.7 10.71,199.33 -0.47,332.53 77.3,526.54 23.33,58.34 52.51,88.47 72.91,142.44 -179.39,59.79 -349.57,118.13 -544.52,10.2 -102.58,-56.89 -265.44,-251.34 -251.84,-423.46l0 0 -0.44 0.03z"/>
   <path class="fil1" d="M104.87 821.99c39.86,-308.23 629.59,-862.01 1023.4,-819.69 -129.81,71.47 -132.74,43.76 -299.48,164.82 -235.32,170.64 -565.43,609.19 -722.94,654.88l-0.47 0 -0.51 0z"/>
  </g>
 </g>
</svg>
