<?xml version="1.0" encoding="UTF-8"?>
<!DOCTYPE svg PUBLIC "-//W3C//DTD SVG 1.1//EN" "http://www.w3.org/Graphics/SVG/1.1/DTD/svg11.dtd">
<!-- Creator: CorelDRAW 2018 (64 Bit) -->
<svg xmlns="http://www.w3.org/2000/svg" xml:space="preserve" width="17.1418mm" height="11.1376mm" version="1.1" style="shape-rendering:geometricPrecision; text-rendering:geometricPrecision; image-rendering:optimizeQuality; fill-rule:evenodd; clip-rule:evenodd"
viewBox="0 0 118.69 77.12"
 xmlns:xlink="http://www.w3.org/1999/xlink">
 <defs>
  <style type="text/css">
   <![CDATA[
    .fil0 {fill:black}
    .fil1 {fill:#ED3237}
   ]]>
  </style>
 </defs>
 <g id="Capa_x0020_1">
  <metadata id="CorelCorpID_0Corel-Layer"/>
  <g id="_2469566610832">
   <path class="fil0" d="M60.48 39.15c0.5,1.01 1.17,1.82 2.06,2.22 0.08,0.03 0.14,0.07 0.22,0.1 0.64,-0.44 1.31,-0.88 1.81,-1.37 0.79,-0.77 1.25,-1.81 1.32,-2.9 0.02,-0.4 -0.03,-1.33 -0.32,-1.7 -1.09,-0.41 -2.06,-0.11 -2.79,0.83 -0.66,0.85 -0.83,1.56 -1.75,2.39 -0.18,0.16 -0.37,0.3 -0.55,0.42l-0 0z"/>
   <path class="fil1" d="M66.05 6.48c-2.82,0.04 -4.35,0.51 -6.32,1.94 -3,2.16 -5.64,6.03 -7.11,9.48 -0.51,1.19 -1.82,5.7 -2.19,6.25 -0.37,0.55 -3.71,3.22 -4.41,3.76 -13.81,10.72 -11.83,-4.24 -10.99,-5.15 0.52,-0.55 2.79,-1.25 5.08,-3.1 8.18,-6.55 13.21,-15.66 23.98,-17.64 2.59,-0.48 4.91,-0.39 7.4,0.01 1.27,0.2 2.28,0.45 3.44,0.8 0.81,0.23 1.81,0.55 2.45,1.05 0.24,0.19 0.22,0.2 0.38,0.38l-5.17 1.14c-1.01,-0.63 -1.77,-1.72 -3.74,-1.42 -1.93,0.29 -1.88,1.24 -2.8,2.5l-0.01 -0.01z"/>
   <path class="fil0" d="M67.1 11.15c-0.19,-0.21 0.14,-0.52 -0.93,-0.26 -0.72,0.18 -2.26,1.51 -2.79,2.12 -2.91,3.32 -5.47,7.81 -6.68,12.25 -1.72,6.36 -1.14,16.61 4.52,19.1 -1.47,1.35 -4.87,0.39 -6.27,-0.75 -4.72,-3.88 -3.96,-14.71 -2.66,-19.96 1.32,-5.34 4.76,-12.25 9.56,-14.76 2.91,-1.52 3.8,-0.85 6.53,-0.17 -0.23,-1.28 -1.51,-2.25 0.28,-3.07 1.27,-0.59 2.55,0.27 2.99,1.44 0.82,2.3 -0.09,9.16 -2.54,11.62 -0.83,0.84 -2.43,1.48 -3.09,0.07 -0.94,-2.03 2.53,-6.15 1.1,-7.64z"/>
   <path class="fil1" d="M75.36 8.79c5.86,-1.33 12.11,4.89 12.1,8.9 -4.77,0.37 -6.37,0.6 -9.92,2.7 -3.98,2.34 -5.89,4.96 -7.03,5.67l-0.9 1.17c-2.5,-0.83 -5.38,-2.62 -9.65,-0.1 -0.93,0.55 -1.68,1.31 -2.38,1.65 0.22,-5.25 5.26,-13.99 7.95,-15.64 -0.28,2.02 -1.83,4.01 -1,6.17 0.73,1.91 3.15,2.41 5.01,1.03 2.66,-1.96 3.76,-6.9 3.9,-11.33l1.91 -0.22 0.01 0z"/>
   <path class="fil0" d="M47.89 49.34c0.71,-0.36 1.7,-0.21 3.98,-1.32 1.45,-0.7 2.29,-1.47 3.42,-2.08 1.96,0 2.65,0.72 5.42,0.49 -0.83,4.65 5.98,1.12 6.77,0.61 2.8,-1.83 5.49,-6.2 6,-9.85 0.43,-3.14 -0.31,-4.4 -1.05,-6.78 3.83,-3.95 9.85,-9.36 15.99,-8.54 0.95,1.39 1.71,6.25 0.29,7.83 -1.25,1.38 -4.12,2.46 -5.83,3.98 -7.15,6.35 -17.37,21.83 -28.84,19.25 -2.52,-0.57 -5.08,-2.15 -6.16,-3.61l0 0.01z"/>
   <path class="fil1" d="M57.58 36.69c-1.59,-1.83 -0.26,-6.49 3.54,-8.44 7.4,-3.8 14.41,4.91 9.16,13.41 -1.77,2.85 -3.56,4.87 -8.01,5.57 0.67,-2.59 3.05,-3.24 4.62,-4.78 3.42,-3.36 2.69,-8.84 0.1,-9.92 -2.43,-1.03 -5.08,-0.43 -6.8,1.81 -0.98,1.28 -0.99,2.31 -2.59,2.35l-0.01 0z"/>
   <path class="fil0" d="M68.5 52.68c0.66,-0.8 2.08,-1.29 2.9,-1.73 6.57,-3.63 10.97,-14.02 16.22,-15.47 -0.67,4.68 -4.48,9 -6.85,11.28 -3.37,3.25 -7.09,5.93 -12.27,5.93l-0 0z"/>
   <path class="fil1" d="M36.41 35.4c4.18,-0.24 7.36,-0.93 10.6,-3.23 1.08,-0.75 1.68,-1.59 2.7,-2.03 0.22,4.1 -0.01,6.84 1.59,10.83 0.48,1.2 1.08,1.82 1.5,2.93 -3.69,1.23 -7.19,2.43 -11.2,0.21 -2.11,-1.17 -5.46,-5.17 -5.18,-8.71l0 -0z"/>
   <path class="fil1" d="M36.58 16.91c0.82,-6.34 12.95,-17.73 21.05,-16.86 -2.67,1.47 -2.73,0.9 -6.16,3.39 -4.84,3.51 -11.63,12.53 -14.87,13.47l-0.01 0z"/>
   <path class="fil0" d="M10.71 56.26c-2.22,-1.13 -5.89,3.42 -6.58,4.7 -2.82,5.25 -1.71,12.14 3.36,11.13 3.6,-0.72 3.78,-5.15 0.57,-6.46 -2.63,-1.07 -2.86,1.11 -4.3,0.98 -0.85,-0.79 -0.13,-2.25 0.44,-2.94 1.54,-1.83 6.53,-0.92 7.68,3.4 1.4,5.21 -4.81,8.32 -9.05,5.48 -3.92,-2.64 -3.14,-8.99 -1.45,-12.88 0.9,-2.06 2.23,-3.62 3.87,-4.68 3.63,-2.34 5.61,0.07 6.29,0.38 -0.07,-0.73 -0.73,-1.6 0.48,-1.58 0.66,0.01 1.29,0.7 1.45,1.27 0.39,1.28 -0.58,5.03 -2.18,5.86 -0.69,0.36 -1.56,0.08 -1.8,-0.57 -0.44,-1.23 1.55,-2.39 1.19,-4.08l0.01 0zm42.93 6.29c-0.38,1.86 -1.84,4.16 -1.55,6.43 0.1,0.79 0.47,0.83 0.67,1.3 0.77,1.82 -5.82,0.5 -2.29,-8.14 1.62,-3.96 3.62,-1.79 3.17,0.41l-0 0zm4.86 8.78c-7.28,0 -5.58,-11.36 0.4,-11.36 1.43,0 2.22,0.41 2.74,1.4 0.6,1.14 0.31,2.71 -1.17,2.48 -1.07,-0.61 -0.22,-1.21 -0.79,-2.15 -2.49,0.41 -4.74,7.89 -1.89,8.54 2.11,0.48 2.8,-3.15 3.93,-1.7 1.15,1.49 -1.71,2.8 -3.22,2.8l-0.01 0zm-26.14 -1.02c0,4.03 1.63,7.31 -0.63,6.75 -4.13,-1.04 -2.16,-11.04 -1.37,-14.07 1.28,-4.81 3.92,-3.06 3.17,-0.73 0.6,-0.89 1.53,-2.26 3.24,-1.96 4.24,0.73 1.8,10.03 -1.74,10.63 -1.02,0.18 -2.53,-0.37 -1.96,-1.42 0.17,-0.17 1.45,0.28 2.33,-3.05 0.45,-1.74 0.58,-2.94 0.57,-4.85 -1.2,0.22 -2.15,1.88 -2.69,3.12 -0.93,2.15 -0.93,3.13 -0.93,5.59l0.01 0zm-4.33 0.72c-1.69,0.97 -2.59,-0.89 -2.61,-2.45 -0.59,1.02 -1.72,3.41 -4.18,2.28 -4.08,-1.88 -0.99,-12.44 4.57,-10.78 0.71,0.21 0.7,0.37 1.23,0.67 0.44,-0.38 0.5,-0.82 1.31,-0.8 2.96,0.07 -1.45,7.1 -1.08,9.71 0.13,0.93 0.91,0.34 0.75,1.38zm-1.72 -9.08c-1.96,-2.12 -5.06,5.42 -4.14,7.31 0.51,1.03 1.43,0.09 1.78,-0.47 0.59,-0.95 2.36,-6.74 2.36,-6.85l0 -0zm-12.7 -3.21c2.81,-0.38 1.51,2.4 1.52,2.69 1.75,0.02 1.86,-1.79 3.36,-1.43 1.44,0.34 1.3,2.1 0.72,3.4 -0.57,1.29 -1.81,4.44 -1.31,5.91 0.24,0.71 1.05,0.88 0.49,1.55 -0.57,0.45 -2.77,-0.54 -3.13,-3.13 -0.32,-2.41 0.67,-3.59 0.93,-5.48l-0.92 -0.03c-0.03,1.13 -0.41,3.14 -1.64,3.37 -0.7,0.13 -1.03,0.08 -1.25,-0.54 0.28,-0.57 0.8,-0.82 1.17,-1.41 0.4,-0.63 0.55,-1.13 0.67,-2.02 -0.57,-0.75 -1.47,-1.89 -0.58,-2.87l-0.02 0.01zm39.88 0.81c-0.67,-0.09 -0.67,-0.21 -0.93,-0.69 -0.93,-1.65 -0.2,-3.05 0.93,-3.02 1.6,0.03 1.83,2.77 0,3.71zm-10.8 5.15l1.11 -1.96c0.75,-1.22 1.72,-2.81 3.37,-2.75 0.85,0.02 1.75,0.53 2.03,1.19 0.8,1.91 -2.53,6.36 -1.1,8.6 0.29,0.44 0.68,0.73 0.27,1.11 -0.95,0.45 -1.89,-0.51 -2.32,-1.03 -2.04,-2.42 -0.34,-6.34 0.42,-8.44 -1.08,0.18 -2.3,3.15 -2.8,4.37 -0.82,2.02 -1.24,4.31 -2,5.17 -2.83,0.02 -1.92,-6.05 -1.68,-7.59 0.42,-2.67 1.13,-5.34 2.31,-7.51 1.56,-2.92 4.03,-1.07 4.1,0.12 0.07,1.21 -3.25,4.31 -3.72,8.74l0 -0.01z"/>
   <path class="fil1" d="M108.13 58.39c0.36,-0.18 1.48,-0.55 1.71,-0.75 0.59,-0.51 1.69,-2.02 3.3,-1.39 0.34,0.13 0.63,0.33 0.79,0.53l0.39 0.77c1.44,0.13 3.55,-0.07 4.38,0.73 -0.03,0.78 -0.21,0.81 -0.95,0.94 -1.41,0.26 -4.74,-0.18 -5.05,-0.04 -1.72,1.77 -2.79,3.03 -4.23,5.28 -3.46,5.41 -1.51,5.45 -1.99,6.53 -1.35,0.39 -2.43,-0.9 -2.45,-2.13 -0.06,-2.52 3.15,-7.74 4.42,-9.53 -0.2,-0.67 -0.27,0.02 -0.31,-0.93l0 0zm-4.22 7.38c-2.02,6.79 -11.32,7.46 -9.55,1.04 0.48,-1.73 1.21,-2.1 2.06,-2.94 0.49,-0.48 0.51,-1.83 2.55,-2.44 2.94,-0.89 5.87,1.17 4.93,4.33l0 0.01zm-4.78 3.15c0.71,-0.66 1.28,-1.38 1.8,-2.16 2.52,-3.8 -0.27,-4.63 -1.53,-3.77 0.43,0.4 1.34,0.7 0.82,1.74 -0.32,0.67 -1.09,0.4 -1.81,0.98 -0.8,0.63 -2.08,2.16 -1.92,3.73 0.89,1.05 1.96,0.09 2.64,-0.51l0 -0zm-21.43 -1.35c-0.52,1.41 -0.8,1.9 0.19,3.03 1.2,0.08 1.71,-0.31 2.56,-0.85 0.64,-0.41 1.29,-1.31 2.15,-0.74 0.29,2.42 -5.12,3.53 -7.24,1.39 -2.33,-2.38 1.31,-6.33 2.35,-7.34 0.8,-0.78 2.28,-1.58 3.73,-1.7 4.74,-0.39 3.3,3.8 0.64,5.34 -1.84,1.08 -2.14,0.93 -4.4,0.88l0 0zm0.71 -1.13c1.95,-0.31 4.12,-1.48 4.02,-3.57 -0.94,0.08 -1.86,0.91 -2.34,1.4 -0.33,0.34 -1.55,1.54 -1.69,2.18l0.01 0zm10.84 -5.05c0.54,0.48 0.52,0.49 0.49,1.4 0.58,-0.18 2.92,-2.18 4.55,-0.61 1.65,1.6 -1.42,6.17 -3.29,7.73 -0.9,0.74 -3.06,2.08 -4.36,0.82 -0.14,-1.43 0.67,-0.57 1.69,-1.44 1.47,-1.25 3.29,-4.45 3.5,-6.39 -2.4,0.49 -4.74,4.16 -5.49,6.29 -0.51,1.42 -0.98,3.11 -1.15,4.66 -0.09,0.78 0,1.95 -0.5,2.49 -0.58,0.62 -1.48,0.39 -2.05,0 -2.71,-1.84 2.04,-10.38 3.27,-12.43 0.66,-1.09 1.66,-2.66 3.35,-2.52l0 0.01zm-23.58 2.54c-0.53,-1.55 1.35,-4.23 3.91,-4.53 4.98,-0.6 7.37,5.52 3.13,9.82 -2.14,2.16 -3.55,2.4 -6.18,2.23 0.02,-0.59 0.37,-0.54 0.62,-1.18 0.71,-1.77 -0.24,-3.74 -0.17,-4.7 0.64,0.53 1.37,0.77 1.7,1.81 0.33,1.04 -0.17,1.92 -0.55,2.61 2.63,0.08 5.27,-3 4.57,-5.78 -0.29,-1.15 -1.74,-2.09 -3.45,-1.85 -1.81,0.24 -2.33,2.04 -3.59,1.58l0.01 -0.01z"/>
  </g>
 </g>
</svg>
